
<svg  xmlns="http://www.w3.org/2000/svg"  x="0px" y="0px"
	 viewBox="0 0 512 512" style="enable-background:new 0 0 512 512;" >
		<path d="M453.063,141.174c-0.147-0.106-0.295-0.213-0.464-0.324l-52.172-34.324c-5.119-3.368-11.748-3.368-16.867,0
			l-52.172,34.324c-0.084,0.055-0.154,0.112-0.234,0.168c-4.146,2.84-6.677,7.557-6.677,12.651v62.402
			c0,5.164,2.597,9.981,6.911,12.819l52.172,34.323c2.551,1.679,5.488,2.526,8.434,2.526c2.497,0,5.002-0.61,7.281-1.837
			c0.382-0.206,0.748-0.432,1.107-0.666c0.015-0.009,0.03-0.012,0.045-0.023l52.172-34.323c4.314-2.838,6.911-7.655,6.911-12.819
			v-62.402C459.51,148.668,457.074,144.029,453.063,141.174z M376.649,221.931l-21.482-14.133v-25.666l21.482,14.133V221.931z
			 M391.994,169.625l-24.253-15.955l24.253-15.956l24.253,15.956L391.994,169.625z M428.821,207.797l-21.482,14.133v-25.667
			l21.482-14.133V207.797z"/>
		<polygon points="88.487,189.327 88.487,214.994 109.97,229.126 109.97,203.461 		"/>
		<path d="M407.338,379.357v48.59c0,8.474-6.87,15.345-15.345,15.345H125.315c-8.474,0-15.345-6.87-15.345-15.345v-48.59H0v112.525
			c0,8.474,6.87,15.345,15.345,15.345h481.311c8.474,0,15.345-6.87,15.345-15.345V379.357H407.338z"/>
		<polygon points="125.315,144.909 101.062,160.864 125.315,176.821 149.567,160.864 		"/>
		<path d="M454.713,290.236h-47.375v58.431h62.72v-43.087C470.058,297.106,463.188,290.236,454.713,290.236z"/>
		<path d="M329.274,290.236c-8.474,0-15.345,6.87-15.345,15.345v43.087h62.72v-58.431H329.274z"/>
		<polygon points="140.659,203.461 140.659,229.126 162.142,214.994 162.142,189.327 		"/>
		<path d="M235.285,4.773H15.345C6.87,4.773,0,11.644,0,20.118v328.549h109.97v-82.806l-45.261-29.777
			c-4.314-2.838-6.911-7.655-6.911-12.819v-62.402c0-5.089,2.525-9.801,6.663-12.642c0.084-0.059,0.158-0.118,0.249-0.177
			l52.172-34.324c5.118-3.368,11.749-3.368,16.867,0c0,0,53.087,34.961,53.397,35.227c3.555,2.882,5.686,7.24,5.686,11.916v62.402
			c0,5.164-2.597,9.981-6.911,12.819c0,0-30.357,19.957-45.261,29.736v82.847h109.97V20.118
			C250.629,11.644,243.759,4.773,235.285,4.773z"/>
	<g>
		<rect x="140.659" y="379.361" width="235.991" height="33.246"/>
</svg>
