<svg  viewBox="0 0 512 512.00013"  xmlns="http://www.w3.org/2000/svg">
<path d="m482.019531 418.378906v-403.378906c0-8.285156-6.714843-15-15-15h-452.019531c-8.285156 0-15 6.714844-15 15v422.019531c0 8.28125 6.714844 15 15 15h373.375l46.824219 46.820313c17.542969 17.546875 46.09375 17.546875 63.640625 0s17.546875-46.09375 0-63.640625zm-30-388.378906v90.003906h-422.019531v-90.003906zm-422.019531 120.007812h422.019531v238.367188l-28.183593-28.179688c-5.855469-5.859374-15.355469-5.859374-21.210938 0l-10.609375 10.605469-20.910156-20.90625c30.773437-41.097656 27.496093-99.792969-9.84375-137.132812-40.941407-40.941407-107.558594-40.941407-148.5 0-40.941407 40.941406-40.941407 107.558593 0 148.5 37.09375 37.09375 95.75 40.828125 137.132812 9.84375l20.90625 20.910156-10.605469 10.605469c-5.136718 5.136718-5.929687 13.320312-1.53125 19.394531h-328.664062zm203.976562 190.039063c-29.242187-29.242187-29.242187-76.824219 0-106.070313 29.242188-29.242187 76.824219-29.246093 106.070313 0 29.242187 29.242188 29.242187 76.828126 0 106.070313s-76.828125 29.242187-106.070313 0zm243.648438 137.578125c-5.847656 5.851562-15.363281 5.851562-21.214844 0-7.984375-7.984375-56.414062-56.414062-64.394531-64.394531l21.214844-21.214844 64.394531 64.394531c5.851562 5.851563 5.851562 15.367188 0 21.214844zm0 0"/><path d="m89.976562 75.003906c0 8.285156-6.71875 15-15.003906 15-8.28125 0-15-6.714844-15-15s6.71875-15 15-15c8.285156 0 15.003906 6.714844 15.003906 15zm0 0"/><path d="m150.976562 75.003906c0 8.285156-6.714843 15-15 15-8.285156 0-15-6.714844-15-15s6.714844-15 15-15c8.285157 0 15 6.714844 15 15zm0 0"/>
<path d="m211.980469 75.003906c0 8.285156-6.714844 15-15 15-8.285157 0-15-6.714844-15-15s6.714843-15 15-15c8.285156 0 15 6.714844 15 15zm0 0"/>
<path d="m377.015625 90.003906h30c8.285156 0 15-6.714844 15-15s-6.714844-15-15-15h-30c-8.285156 0-15 6.714844-15 15s6.714844 15 15 15zm0 0"/>
</svg>
