<?xml version="1.0" encoding="iso-8859-1"?>
<!-- Generator: Adobe Illustrator 19.0.0, SVG Export Plug-In . SVG Version: 6.00 Build 0)  -->
<svg version="1.1" id="Capa_1" xmlns="http://www.w3.org/2000/svg" xmlns:xlink="http://www.w3.org/1999/xlink" x="0px" y="0px"
	 viewBox="0 0 512 512" style="enable-background:new 0 0 512 512;" xml:space="preserve">
<path style="fill:#095C92;" d="M272,375v62c0,8.401-6.599,15-15,15s-15-6.599-15-15v-62c0-8.401,6.599-15,15-15S272,366.599,272,375
	z"/>
<path style="fill:#08469C;" d="M272,375v62c0,8.401-6.599,15-15,15v-92C265.401,360,272,366.599,272,375z"/>
<path style="fill:#0D70B2;" d="M257,422c-24.902,0-45,20.099-45,45s20.098,45,45,45s45-20.099,45-45S281.902,422,257,422z M257,482
	c-8.401,0-15-6.599-15-15s6.599-15,15-15s15,6.599,15,15S265.401,482,257,482z"/>
<path style="fill:#095C92;" d="M302,467c0,24.901-20.098,45-45,45v-30c8.401,0,15-6.599,15-15s-6.599-15-15-15v-30
	C281.902,422,302,442.099,302,467z"/>
<path style="fill:#E1E1E4;" d="M467,60H45c-8.401,0-15,6.599-15,15v300c0,8.401,6.599,15,15,15h422c8.401,0,15-6.599,15-15V75
	C482,66.599,475.401,60,467,60z"/>
<path style="fill:#D9D8DB;" d="M467,60H257v330h210c8.401,0,15-6.599,15-15V75C482,66.599,475.401,60,467,60z"/>
<path style="fill:#0D70B2;" d="M467,0H45C20.098,0,0,20.099,0,45s20.098,45,45,45h422c24.902,0,45-20.099,45-45S491.902,0,467,0z"/>
<path style="fill:#095C92;" d="M512,45c0,24.901-20.098,45-45,45H257V0h210C491.902,0,512,20.099,512,45z"/>
<g>
	<path style="fill:#17ACE8;" d="M182,255c0,8.291-6.709,15-15,15h-62c-8.291,0-15-6.709-15-15v-60c0-8.291,6.709-15,15-15h62
		c8.291,0,15,6.709,15,15V255z"/>
	<path style="fill:#17ACE8;" d="M287,150h-60c-8.401,0-15,6.599-15,15v90c0,8.401,6.599,15,15,15h60c8.401,0,15-6.599,15-15v-90
		C302,156.599,295.401,150,287,150z"/>
</g>
<g>
	<path style="fill:#1689FC;" d="M422,255c0,8.291-6.709,15-15,15h-60c-8.291,0-15-6.709-15-15V135c0-8.291,6.709-15,15-15h60
		c8.291,0,15,6.709,15,15V255z"/>
	<path style="fill:#1689FC;" d="M302,165v90c0,8.401-6.599,15-15,15h-30V150h30C295.401,150,302,156.599,302,165z"/>
</g>
<g>
	<path style="fill:#B758CE;" d="M182,315c0,8.291-6.709,15-15,15h-62c-8.291,0-15-6.709-15-15v-75h92V315z"/>
	<path style="fill:#B758CE;" d="M212,240v75c0,8.401,6.599,15,15,15h60c8.401,0,15-6.599,15-15v-75H212z"/>
</g>
<g>
	<path style="fill:#AA3DC8;" d="M257,240h45v75c0,8.401-6.599,15-15,15h-30V240z"/>
	<path style="fill:#AA3DC8;" d="M422,315c0,8.291-6.709,15-15,15h-60c-8.291,0-15-6.709-15-15v-75h90V315z"/>
</g>
<g>
</g>
<g>
</g>
<g>
</g>
<g>
</g>
<g>
</g>
<g>
</g>
<g>
</g>
<g>
</g>
<g>
</g>
<g>
</g>
<g>
</g>
<g>
</g>
<g>
</g>
<g>
</g>
<g>
</g>
</svg>
