<svg id="Layer_1" height="512" viewBox="0 0 64 64" width="512" xmlns="http://www.w3.org/2000/svg" xmlns:xlink="http://www.w3.org/1999/xlink" data-name="Layer 1"><linearGradient id="linear-gradient" gradientUnits="userSpaceOnUse" x1="11.778" x2="52.222" y1="52.222" y2="11.778"><stop offset="0" stop-color="#617093"/><stop offset="1" stop-color="#3d4860"/></linearGradient><linearGradient id="linear-gradient-2" gradientUnits="userSpaceOnUse" x1="22.5" x2="38.46" y1="34.5" y2="18.54"><stop offset="0" stop-color="#77f969"/><stop offset="1" stop-color="#03dd03"/></linearGradient><linearGradient id="linear-gradient-3" gradientUnits="userSpaceOnUse" x1="25.54" x2="41.5" y1="45.46" y2="29.5"><stop offset="0" stop-color="#ffce62"/><stop offset="1" stop-color="#f4a519"/></linearGradient><path d="m56 32a24 24 0 0 0 -.876-6.422l4.125-2.378-6-10.392-4.128 2.383a23.971 23.971 0 0 0 -11.121-6.435v-4.756h-12v4.756a23.971 23.971 0 0 0 -11.121 6.431l-4.128-2.387-6 10.392 4.125 2.382a23.978 23.978 0 0 0 0 12.844l-4.125 2.382 6 10.392 4.128-2.383a23.971 23.971 0 0 0 11.121 6.435v4.756h12v-4.756a23.971 23.971 0 0 0 11.121-6.431l4.128 2.387 6-10.392-4.125-2.382a24 24 0 0 0 .876-6.426z" fill="url(#linear-gradient)"/><path d="m41.921 30h4.079a14.089 14.089 0 0 0 -23.98-7.789v-4.211l-4.02 2v10h10l2.061-4h-6.03a10.07 10.07 0 0 1 17.89 4z" fill="url(#linear-gradient-2)"/><path d="m22.079 34h-4.079a14.089 14.089 0 0 0 23.98 7.789v4.211l4.02-2v-10h-10l-2.061 4h6.03a10.07 10.07 0 0 1 -17.89-4z" fill="url(#linear-gradient-3)"/></svg>