<?xml version="1.0" encoding="iso-8859-1"?>
<!-- Generator: Adobe Illustrator 18.0.0, SVG Export Plug-In . SVG Version: 6.00 Build 0)  -->
<!DOCTYPE svg PUBLIC "-//W3C//DTD SVG 1.1//EN" "http://www.w3.org/Graphics/SVG/1.1/DTD/svg11.dtd">
<svg version="1.1" id="Capa_1" xmlns="http://www.w3.org/2000/svg" xmlns:xlink="http://www.w3.org/1999/xlink" x="0px" y="0px"
	 viewBox="0 0 54 54" style="enable-background:new 0 0 54 54;" xml:space="preserve">
<g>
	<path d="M41.824,0H12.176C5.462,0,0,5.462,0,12.176v29.648C0,48.538,5.462,54,12.176,54h29.648C48.538,54,54,48.538,54,41.824
		V12.176C54,5.462,48.538,0,41.824,0z M22,32c0,5.334-2.826,8-8.479,8H5.2V11.96h7.521c3.013,0,5.313,0.827,6.899,2.48
		S22,18.294,22,21.04V32z M43.721,40h-3.44l-3.68-14.56L32.88,40H29.44L23.2,19.96h3.08l4.84,16.08l4.12-16.08h2.84l4.12,16.08
		l4.72-16.08H50L43.721,40z"/>
	<path d="M13.12,14.72H8.08V37.4h4.8c2.96,0,4.854-0.787,5.681-2.36c0.373-0.693,0.56-1.573,0.56-2.64V20.64
		c0-2-0.58-3.486-1.74-4.46C16.221,15.207,14.801,14.72,13.12,14.72z"/>
</g>
<g>
</g>
<g>
</g>
<g>
</g>
<g>
</g>
<g>
</g>
<g>
</g>
<g>
</g>
<g>
</g>
<g>
</g>
<g>
</g>
<g>
</g>
<g>
</g>
<g>
</g>
<g>
</g>
<g>
</g>
</svg>
