<?xml version="1.0" encoding="iso-8859-1"?>
<!-- Generator: Adobe Illustrator 18.0.0, SVG Export Plug-In . SVG Version: 6.00 Build 0)  -->
<!DOCTYPE svg PUBLIC "-//W3C//DTD SVG 1.1//EN" "http://www.w3.org/Graphics/SVG/1.1/DTD/svg11.dtd">
<svg version="1.1" id="Capa_1" xmlns="http://www.w3.org/2000/svg" xmlns:xlink="http://www.w3.org/1999/xlink" x="0px" y="0px"
	 viewBox="0 0 54 54" style="enable-background:new 0 0 54 54;" xml:space="preserve">
<path d="M41.824,0H12.176C5.462,0,0,5.462,0,12.176v29.648C0,48.538,5.462,54,12.176,54h29.648C48.538,54,54,48.538,54,41.824
	V12.176C54,5.462,48.538,0,41.824,0z M17.28,26.28h-5.4V40H9V12h13.36v2.8H11.88v8.681h6.48L17.28,26.28z M40.72,40h-3.44
	L33.6,25.44L29.88,40h-3.44L20.2,19.96h3.08l4.84,16.08l4.12-16.08h2.84l4.12,16.08l4.72-16.08H47L40.72,40z"/>
<g>
</g>
<g>
</g>
<g>
</g>
<g>
</g>
<g>
</g>
<g>
</g>
<g>
</g>
<g>
</g>
<g>
</g>
<g>
</g>
<g>
</g>
<g>
</g>
<g>
</g>
<g>
</g>
<g>
</g>
</svg>
