<?xml version="1.0" encoding="iso-8859-1"?>
<!-- Generator: Adobe Illustrator 18.0.0, SVG Export Plug-In . SVG Version: 6.00 Build 0)  -->
<!DOCTYPE svg PUBLIC "-//W3C//DTD SVG 1.1//EN" "http://www.w3.org/Graphics/SVG/1.1/DTD/svg11.dtd">
<svg version="1.1" id="Capa_1" xmlns="http://www.w3.org/2000/svg" xmlns:xlink="http://www.w3.org/1999/xlink" x="0px" y="0px"
	 viewBox="0 0 54 54" style="enable-background:new 0 0 54 54;" xml:space="preserve">
<g>
	<polygon points="18.12,28 24.96,28 21.48,16.64 	"/>
	<path d="M41.824,0H12.176C5.462,0,0,5.462,0,12.176v29.648C0,48.538,5.462,54,12.176,54h29.648C48.538,54,54,48.538,54,41.824
		V12.176C54,5.462,48.538,0,41.824,0z M28.44,40l-2.76-9.04h-8.32L14.72,40H11.6l8.24-28h3.32l8.52,28H28.44z M38.24,40h-2.88V19.96
		h2.88V40z M38,14.4c-0.32,0.319-0.7,0.479-1.14,0.479c-0.44,0-0.827-0.166-1.16-0.5c-0.334-0.333-0.5-0.713-0.5-1.14
		s0.166-0.807,0.5-1.141c0.333-0.333,0.72-0.5,1.16-0.5c0.44,0,0.82,0.16,1.14,0.48c0.32,0.32,0.48,0.707,0.48,1.16
		S38.32,14.08,38,14.4z"/>
</g>
<g>
</g>
<g>
</g>
<g>
</g>
<g>
</g>
<g>
</g>
<g>
</g>
<g>
</g>
<g>
</g>
<g>
</g>
<g>
</g>
<g>
</g>
<g>
</g>
<g>
</g>
<g>
</g>
<g>
</g>
</svg>
