<?xml version="1.0" encoding="iso-8859-1"?>
<!-- Generator: Adobe Illustrator 18.0.0, SVG Export Plug-In . SVG Version: 6.00 Build 0)  -->
<!DOCTYPE svg PUBLIC "-//W3C//DTD SVG 1.1//EN" "http://www.w3.org/Graphics/SVG/1.1/DTD/svg11.dtd">
<svg version="1.1" id="Capa_1" xmlns="http://www.w3.org/2000/svg" xmlns:xlink="http://www.w3.org/1999/xlink" x="0px" y="0px"
	 viewBox="0 0 54 54" style="enable-background:new 0 0 54 54;" xml:space="preserve">
<g>
	<path d="M29.18,23.62c-0.707,0.813-1.06,1.847-1.06,3.1v7.12c0,1.227,0.44,2.188,1.32,2.88C30.4,37.44,31.586,37.8,33,37.8
		c1.413,0,2.8-0.106,4.16-0.319V23.52c-1.387-0.746-2.907-1.119-4.56-1.119C31.026,22.4,29.886,22.807,29.18,23.62z"/>
	<path d="M41.824,0H12.176C5.462,0,0,5.462,0,12.176v29.648C0,48.538,5.462,54,12.176,54h29.648C48.538,54,54,48.538,54,41.824
		V12.176C54,5.462,48.538,0,41.824,0z M19.08,40H16.2V14.72l-2.64-0.08V12h5.52V40z M40.04,40c-2.293,0.32-4.414,0.48-6.36,0.48
		c-1.947,0-3.707-0.4-5.28-1.2c-2.08-1.066-3.12-2.92-3.12-5.561v-7.56c0-2.8,1.133-4.72,3.4-5.76
		c1.173-0.507,2.593-0.761,4.26-0.761s3.073,0.374,4.22,1.12V12h2.88V40z"/>
</g>
<g>
</g>
<g>
</g>
<g>
</g>
<g>
</g>
<g>
</g>
<g>
</g>
<g>
</g>
<g>
</g>
<g>
</g>
<g>
</g>
<g>
</g>
<g>
</g>
<g>
</g>
<g>
</g>
<g>
</g>
</svg>
