<?xml version="1.0" encoding="iso-8859-1"?>
<!-- Generator: Adobe Illustrator 18.0.0, SVG Export Plug-In . SVG Version: 6.00 Build 0)  -->
<!DOCTYPE svg PUBLIC "-//W3C//DTD SVG 1.1//EN" "http://www.w3.org/Graphics/SVG/1.1/DTD/svg11.dtd">
<svg version="1.1" id="Capa_1" xmlns="http://www.w3.org/2000/svg" xmlns:xlink="http://www.w3.org/1999/xlink" x="0px" y="0px"
	 viewBox="0 0 54 54" style="enable-background:new 0 0 54 54;" xml:space="preserve">
<g>
	<path d="M23.48,14.8H16.96V28h6.681c0.96,0,1.772-0.187,2.439-0.56c0.666-0.374,1.153-0.773,1.46-1.2s0.547-1.04,0.72-1.84
		c0.174-0.801,0.267-1.4,0.28-1.801c0.014-0.399,0.021-0.973,0.021-1.72C28.561,16.827,26.866,14.8,23.48,14.8z"/>
	<path d="M41.824,0H12.176C5.462,0,0,5.462,0,12.176v29.648C0,48.538,5.462,54,12.176,54h29.648C48.538,54,54,48.538,54,41.824
		V12.176C54,5.462,48.538,0,41.824,0z M31.36,23.26c-0.054,0.681-0.22,1.534-0.5,2.561s-0.66,1.866-1.141,2.52
		c-0.479,0.654-1.213,1.227-2.199,1.72C26.533,30.554,25.36,30.8,24,30.8h-7.04V40h-2.88V12h9.64c2.613,0,4.554,0.813,5.82,2.44
		c1.267,1.626,1.9,3.76,1.9,6.399C31.44,21.773,31.413,22.58,31.36,23.26z M39,40h-2.88V12H39V40z"/>
</g>
<g>
</g>
<g>
</g>
<g>
</g>
<g>
</g>
<g>
</g>
<g>
</g>
<g>
</g>
<g>
</g>
<g>
</g>
<g>
</g>
<g>
</g>
<g>
</g>
<g>
</g>
<g>
</g>
<g>
</g>
</svg>
