<?xml version="1.0" encoding="iso-8859-1"?>
<!-- Generator: Adobe Illustrator 18.0.0, SVG Export Plug-In . SVG Version: 6.00 Build 0)  -->
<!DOCTYPE svg PUBLIC "-//W3C//DTD SVG 1.1//EN" "http://www.w3.org/Graphics/SVG/1.1/DTD/svg11.dtd">
<svg version="1.1" id="Capa_1" xmlns="http://www.w3.org/2000/svg" xmlns:xlink="http://www.w3.org/1999/xlink" x="0px" y="0px"
	 viewBox="0 0 58 58" style="enable-background:new 0 0 58 58;" xml:space="preserve">
<g>
	<rect x="25.5" y="40" width="6" height="2"/>
	<rect x="25.5" y="36" width="6" height="2"/>
	<path d="M50.95,12.187L39.313,0.55C38.964,0.201,38.48,0,37.985,0H8.963C7.777,0,6.5,0.916,6.5,2.926V56c0,1.009,1.22,2,2.463,2
		H27.5V44h-4V34h4v-2h-2v-2h2v-2h-2v-2h2v-2h-2v-2h2v-2h2v2h2v2h-2v2h2v2h-2v2h2v2h-2v2h4v10h-4v14h19.537
		c1.243,0,2.463-0.991,2.463-2V13.978C51.5,13.212,51.408,12.645,50.95,12.187z M48.109,14H37.5V3.391
		c0-0.458,0.553-0.687,0.877-0.363l10.095,10.095C48.796,13.447,48.567,14,48.109,14z"/>
</g>
<g>
</g>
<g>
</g>
<g>
</g>
<g>
</g>
<g>
</g>
<g>
</g>
<g>
</g>
<g>
</g>
<g>
</g>
<g>
</g>
<g>
</g>
<g>
</g>
<g>
</g>
<g>
</g>
<g>
</g>
</svg>
